<svg xmlns="http://www.w3.org/2000/svg" viewBox="0 0 351.12928 272.81037"><defs><style>.cls-1{fill:#fff;}</style></defs><title>Asset 1</title><g id="Layer_2" data-name="Layer 2"><g id="Layer_1-2" data-name="Layer 1"><g id="Capa_1" data-name="Capa 1"><path class="cls-1" d="M278.80343,164.63967c-4.284,26.928-37.944,55.692-64.26,56.304a6.94919,6.94919,0,0,0-4.896,1.836,5.02727,5.02727,0,0,0-3.06,3.06c-9.18,17.136-4.284,30.6,11.016,41.616,17.748,12.852,45.9,0,59.976-11.628,35.496-29.376,71.604-80.171,69.768-128.52,6.12-32.437,4.896-67.32-4.284-96.084-6.12-18.36-23.868-27.54-42.228-28.764-18.36-1.225-56.304-6.732-72.828,4.283-16.524,11.017-17.748,32.437-19.584,50.796-1.836,20.196-7.344,58.141,9.792,74.053C235.35145,146.89167,284.31146,130.36767,278.80343,164.63967Z"/><path class="cls-1" d="M76.84343,164.63967c-4.284,26.928-37.943,55.692-64.26,56.304a6.94921,6.94921,0,0,0-4.896,1.836,5.02866,5.02866,0,0,0-3.061,3.06c-9.18,17.136-4.284,30.6,11.016,41.616,17.748,12.852,45.9,0,59.977-11.628,35.496-29.376,71.604-80.172,69.768-128.52,6.12-32.437,4.896-67.32-4.283-96.084-6.12-18.36-23.868-27.54-42.229-28.764-18.36-1.225-56.304-6.732-72.828,4.283-16.523,11.017-17.748,32.437-19.584,50.796-1.836,20.196-7.344,58.141,9.792,74.053C33.39144,146.89167,82.96346,130.36767,76.84343,164.63967Z"/></g></g></g></svg>